<?xml version="1.0" encoding="utf-8"?>
<!-- Generator: Adobe Illustrator 21.1.0, SVG Export Plug-In . SVG Version: 6.00 Build 0)  -->
<svg version="1.1" id="Layer_1" xmlns="http://www.w3.org/2000/svg" xmlns:xlink="http://www.w3.org/1999/xlink" x="0px" y="0px"
	 viewBox="0 0 107.8 109.5" enable-background="new 0 0 107.8 109.5" xml:space="preserve">
<g id="XMLID_28196_">
	<path id="XMLID_28206_" fill="#FFFFFF" d="M28.4,66.7V46.8c0-0.7-0.5-1.2-1.2-1.2H16c-0.7,0-1.2,0.5-1.2,1.2v19.8
		c0,0.7,0.5,1.2,1.2,1.2h11.2C27.9,67.9,28.4,67.3,28.4,66.7z M26,65.5h-8.8V48H26V65.5z"/>
	<path id="XMLID_28203_" fill="#FFFFFF" d="M53.2,26.5L31.4,45.9c-0.3,0.2-0.4,0.6-0.4,0.9v19.8c0,0.4,0.2,0.8,0.5,1l21.8,14.8
		c0.2,0.1,0.4,0.2,0.7,0.2c0.2,0,0.4,0,0.6-0.1c0.4-0.2,0.6-0.6,0.6-1.1v-54c0-0.5-0.3-0.9-0.7-1.1C54.1,26.1,53.6,26.2,53.2,26.5z
		 M52.8,79.2L33.4,66V47.4l19.4-17.3V79.2z"/>
	<path id="XMLID_28200_" fill="#FFFFFF" d="M76,79.7c0,0.9,0.4,1.8,1,2.5c0.7,0.7,1.6,1.1,2.6,1.1c0.9,0,1.8-0.3,2.5-1
		c7-6.8,10.8-15.8,10.8-25.5S89.1,38,82.1,31.2c-1.4-1.4-3.7-1.3-5.1,0.1c-1.4,1.4-1.3,3.7,0.1,5.1c5.6,5.4,8.6,12.6,8.6,20.4
		c0,7.7-3.1,15-8.6,20.4C76.4,77.8,76,78.7,76,79.7z M78.8,78.8c6-5.9,9.3-13.7,9.3-22.1c0-8.4-3.3-16.2-9.3-22.1
		c-0.5-0.5-0.5-1.2,0-1.7c0.2-0.2,0.5-0.4,0.9-0.4c0.3,0,0.6,0.1,0.8,0.3c6.5,6.3,10.1,14.8,10.1,23.8c0,9-3.6,17.5-10.1,23.8
		c-0.5,0.5-1.2,0.4-1.7,0c-0.2-0.2-0.3-0.5-0.3-0.8C78.4,79.4,78.6,79.1,78.8,78.8z"/>
	<path id="XMLID_28197_" fill="#FFFFFF" d="M61.9,71.3c0,0.9,0.4,1.8,1,2.5c0.7,0.7,1.6,1.1,2.5,1.1c0,0,0.1,0,0.1,0
		c0.9,0,1.8-0.4,2.5-1c4.7-4.5,7.3-10.6,7.3-17.2c0-6.5-2.6-12.6-7.3-17.2c-0.7-0.7-1.6-1-2.6-1c-1,0-1.9,0.4-2.5,1.1
		c-0.7,0.7-1,1.6-1,2.6c0,1,0.4,1.9,1.1,2.5c3.3,3.2,5.1,7.4,5.1,12s-1.8,8.8-5.1,12C62.3,69.4,61.9,70.3,61.9,71.3z M64.6,70.4
		c3.8-3.6,5.9-8.5,5.9-13.7S68.4,46.7,64.6,43c-0.2-0.2-0.4-0.5-0.4-0.8c0-0.3,0.1-0.6,0.3-0.9c0.2-0.2,0.5-0.4,0.8-0.4c0,0,0,0,0,0
		c0.3,0,0.6,0.1,0.8,0.3c4.3,4.1,6.6,9.5,6.6,15.4c0,5.9-2.3,11.4-6.6,15.4c-0.2,0.2-0.5,0.4-0.9,0.3c-0.3,0-0.6-0.1-0.8-0.4
		c-0.2-0.2-0.3-0.5-0.3-0.8C64.3,71,64.4,70.7,64.6,70.4z"/>
</g>
</svg>
