<?xml version="1.0" encoding="utf-8"?>
<!-- Generator: Adobe Illustrator 21.1.0, SVG Export Plug-In . SVG Version: 6.00 Build 0)  -->
<svg version="1.1" id="Layer_1" xmlns="http://www.w3.org/2000/svg" xmlns:xlink="http://www.w3.org/1999/xlink" x="0px" y="0px"
	 viewBox="0 0 107.8 109.5" enable-background="new 0 0 107.8 109.5" xml:space="preserve">
<g id="XMLID_28468_">
	<path id="XMLID_28490_" fill="#FFFFFF" d="M43.1,31c1.9,0,3.5-1.6,3.5-3.5V14.7c0-2-1.6-3.5-3.5-3.5c-2,0-3.5,1.6-3.5,3.5v12.7
		C39.5,29.4,41.1,31,43.1,31z M41.7,14.7c0-0.8,0.6-1.4,1.4-1.4c0.8,0,1.4,0.6,1.4,1.4v12.7c0,0.8-0.6,1.4-1.4,1.4
		c-0.8,0-1.4-0.6-1.4-1.4V14.7z"/>
	<path id="XMLID_28487_" fill="#FFFFFF" d="M39.5,64.7c0,1.9,1.6,3.5,3.5,3.5c1.9,0,3.5-1.6,3.5-3.5V51.9c0-2-1.6-3.5-3.5-3.5
		c-2,0-3.5,1.6-3.5,3.5V64.7z M41.7,51.9c0-0.8,0.6-1.4,1.4-1.4c0.8,0,1.4,0.6,1.4,1.4v12.7c0,0.8-0.6,1.4-1.4,1.4
		c-0.8,0-1.4-0.6-1.4-1.4V51.9z"/>
	<path id="XMLID_28484_" fill="#FFFFFF" d="M60.7,18.5c-0.9,0-1.8,0.4-2.5,1l-9,9c-0.7,0.7-1,1.6-1,2.5c0,0.9,0.4,1.8,1,2.5
		c0.7,0.7,1.6,1,2.5,1c0.9,0,1.8-0.4,2.5-1l9-9c0.7-0.7,1-1.6,1-2.5c0-0.9-0.4-1.8-1-2.5C62.6,18.9,61.7,18.5,60.7,18.5z M50.7,32
		c-0.3-0.3-0.4-0.6-0.4-1c0-0.4,0.1-0.7,0.4-1l9-9c0.3-0.3,0.6-0.4,1-0.4c0.4,0,0.7,0.1,1,0.4c0.3,0.3,0.4,0.6,0.4,1
		c0,0.4-0.1,0.7-0.4,1l-9,9C52.2,32.6,51.3,32.6,50.7,32z"/>
	<path id="XMLID_28481_" fill="#FFFFFF" d="M38,48.4c0-0.9-0.4-1.8-1-2.5c-1.4-1.4-3.6-1.4-5,0l-9,9c-0.7,0.7-1,1.6-1,2.5
		c0,0.9,0.4,1.8,1,2.5c0.7,0.7,1.6,1,2.5,1c0.9,0,1.8-0.4,2.5-1l9-9C37.6,50.2,38,49.3,38,48.4z M35.4,49.4l-9,9
		c-0.5,0.5-1.5,0.5-2,0c-0.3-0.3-0.4-0.6-0.4-1c0-0.4,0.1-0.7,0.4-1l9-9c0.3-0.3,0.6-0.4,1-0.4c0.4,0,0.7,0.1,1,0.4
		c0.3,0.3,0.4,0.6,0.4,1C35.8,48.7,35.7,49.1,35.4,49.4z"/>
	<path id="XMLID_28478_" fill="#FFFFFF" d="M51.8,39.7c0,2,1.6,3.5,3.5,3.5H68c2,0,3.5-1.6,3.5-3.5c0-1.9-1.6-3.5-3.5-3.5H55.3
		C53.4,36.2,51.8,37.7,51.8,39.7z M69.5,39.7c0,0.8-0.6,1.4-1.4,1.4H55.3c-0.8,0-1.4-0.6-1.4-1.4c0-0.8,0.6-1.4,1.4-1.4H68
		C68.8,38.3,69.5,38.9,69.5,39.7z"/>
	<path id="XMLID_28475_" fill="#FFFFFF" d="M18.1,43.2h12.7c1.9,0,3.5-1.6,3.5-3.5c0-1.9-1.6-3.5-3.5-3.5H18.1c-2,0-3.5,1.6-3.5,3.5
		C14.6,41.6,16.1,43.2,18.1,43.2z M18.1,38.3h12.7c0.8,0,1.4,0.6,1.4,1.4c0,0.8-0.6,1.4-1.4,1.4H18.1c-0.8,0-1.4-0.6-1.4-1.4
		C16.7,38.9,17.3,38.3,18.1,38.3z"/>
	<path id="XMLID_28472_" fill="#FFFFFF" d="M31.9,33.5c0.7,0.7,1.6,1,2.5,1c0.9,0,1.8-0.4,2.5-1c0.7-0.7,1-1.6,1-2.5
		c0-0.9-0.4-1.8-1-2.5l-9-9c-1.4-1.4-3.6-1.4-5,0c-0.7,0.7-1,1.6-1,2.5c0,0.9,0.4,1.8,1,2.5L31.9,33.5z M24.4,21
		c0.3-0.3,0.6-0.4,1-0.4c0.4,0,0.7,0.1,1,0.4l9,9c0.3,0.3,0.4,0.6,0.4,1c0,0.4-0.1,0.7-0.4,1c-0.5,0.5-1.5,0.5-2,0l-9-9
		c-0.3-0.3-0.4-0.6-0.4-1C24,21.7,24.1,21.3,24.4,21z"/>
	<path id="XMLID_28469_" fill="#FFFFFF" d="M93.7,64.8c-0.1-0.5-0.4-0.9-0.8-1.1L51.5,45.7c-0.5-0.2-1-0.1-1.4,0.2
		c-0.4,0.3-0.6,0.8-0.6,1.3L55.2,92c0.1,0.5,0.4,0.9,0.9,1.1c0.5,0.2,1,0.1,1.4-0.2l10.4-7.8l10.9,14.5c0.3,0.4,0.7,0.6,1.1,0.6
		c0.3,0,0.6-0.1,0.8-0.3l12.7-9.6c0.3-0.2,0.5-0.6,0.6-0.9c0.1-0.4,0-0.7-0.3-1L82.8,73.9l10.4-7.8C93.6,65.8,93.8,65.3,93.7,64.8z
		 M80,72.4c-0.3,0.2-0.5,0.6-0.5,0.9c-0.1,0.4,0,0.7,0.3,1l10.9,14.5l-10.5,7.9L69.2,82.3c-0.3-0.4-0.7-0.6-1.1-0.6
		c-0.3,0-0.6,0.1-0.8,0.3l-9.6,7.2l-5.1-39.9l36.9,16L80,72.4z"/>
</g>
</svg>
